<mxfile host="app.diagrams.net" agent="Mozilla/5.0 (Windows NT 10.0; Win64; x64) AppleWebKit/537.36 (KHTML, like Gecko) Chrome/125.0.0.0 Safari/537.36 Edg/125.0.0.0" version="24.7.17">
  <diagram name="1 oldal" id="8jCl28bYToG2T7znZWy4">
    <mxGraphModel dx="1426" dy="1962" grid="1" gridSize="10" guides="1" tooltips="1" connect="1" arrows="1" fold="1" page="1" pageScale="1" pageWidth="827" pageHeight="1169" math="0" shadow="0">
      <root>
        <mxCell id="0" />
        <mxCell id="1" parent="0" />
        <mxCell id="laKfoMu4vDz7gOgftW2H-1" value="&lt;font style=&quot;font-size: 20px;&quot;&gt;Human&lt;/font&gt;" style="ellipse;whiteSpace=wrap;html=1;aspect=fixed;fillColor=#007FFF;strokeWidth=2;" vertex="1" parent="1">
          <mxGeometry x="40" y="240" width="80" height="80" as="geometry" />
        </mxCell>
        <mxCell id="laKfoMu4vDz7gOgftW2H-3" value="" style="rounded=0;whiteSpace=wrap;html=1;gradientColor=none;fillColor=#007FFF;" vertex="1" parent="1">
          <mxGeometry x="280" y="-40" width="400" height="640" as="geometry" />
        </mxCell>
        <mxCell id="laKfoMu4vDz7gOgftW2H-4" value="&lt;font style=&quot;font-size: 15px;&quot;&gt;Interface&lt;/font&gt;" style="text;html=1;align=center;verticalAlign=middle;resizable=0;points=[];autosize=1;strokeColor=none;fillColor=none;" vertex="1" parent="1">
          <mxGeometry x="440" y="-40" width="80" height="30" as="geometry" />
        </mxCell>
        <mxCell id="laKfoMu4vDz7gOgftW2H-5" value="" style="rounded=0;whiteSpace=wrap;html=1;fillColor=#007FFF;" vertex="1" parent="1">
          <mxGeometry x="720" y="-40" width="400" height="640" as="geometry" />
        </mxCell>
        <mxCell id="laKfoMu4vDz7gOgftW2H-6" value="&lt;font style=&quot;font-size: 15px;&quot;&gt;Engine&lt;/font&gt;" style="text;html=1;align=center;verticalAlign=middle;resizable=0;points=[];autosize=1;strokeColor=none;fillColor=none;" vertex="1" parent="1">
          <mxGeometry x="885" y="-40" width="70" height="30" as="geometry" />
        </mxCell>
        <mxCell id="laKfoMu4vDz7gOgftW2H-7" value="&lt;font style=&quot;font-size: 15px;&quot;&gt;Player_Movement&lt;/font&gt;" style="ellipse;whiteSpace=wrap;html=1;fillColor=#007FFF;strokeWidth=2;" vertex="1" parent="1">
          <mxGeometry x="320" y="120" width="150" height="80" as="geometry" />
        </mxCell>
        <mxCell id="laKfoMu4vDz7gOgftW2H-8" value="&lt;font style=&quot;font-size: 15px;&quot;&gt;Shoot&lt;/font&gt;" style="ellipse;whiteSpace=wrap;html=1;fillColor=#007FFF;strokeWidth=2;" vertex="1" parent="1">
          <mxGeometry x="320" y="240" width="150" height="80" as="geometry" />
        </mxCell>
        <mxCell id="laKfoMu4vDz7gOgftW2H-9" value="&lt;font style=&quot;font-size: 15px;&quot;&gt;Special_Attack&lt;/font&gt;" style="ellipse;whiteSpace=wrap;html=1;fillColor=#007FFF;strokeWidth=2;" vertex="1" parent="1">
          <mxGeometry x="320" y="360" width="150" height="80" as="geometry" />
        </mxCell>
        <mxCell id="laKfoMu4vDz7gOgftW2H-10" value="&lt;font style=&quot;font-size: 15px;&quot;&gt;Choose_Equipment&lt;/font&gt;" style="ellipse;whiteSpace=wrap;html=1;fillColor=#007FFF;strokeWidth=2;" vertex="1" parent="1">
          <mxGeometry x="320" y="480" width="150" height="80" as="geometry" />
        </mxCell>
        <mxCell id="laKfoMu4vDz7gOgftW2H-12" value="" style="edgeStyle=none;orthogonalLoop=1;jettySize=auto;html=1;rounded=0;exitX=1;exitY=0.5;exitDx=0;exitDy=0;entryX=0;entryY=0.5;entryDx=0;entryDy=0;endArrow=none;endFill=0;strokeWidth=2;" edge="1" parent="1" source="laKfoMu4vDz7gOgftW2H-1" target="laKfoMu4vDz7gOgftW2H-7">
          <mxGeometry width="100" relative="1" as="geometry">
            <mxPoint x="130" y="250" as="sourcePoint" />
            <mxPoint x="230" y="250" as="targetPoint" />
            <Array as="points" />
          </mxGeometry>
        </mxCell>
        <mxCell id="laKfoMu4vDz7gOgftW2H-13" value="" style="edgeStyle=none;orthogonalLoop=1;jettySize=auto;html=1;rounded=0;exitX=1;exitY=0.5;exitDx=0;exitDy=0;entryX=0;entryY=0.5;entryDx=0;entryDy=0;endArrow=none;endFill=0;strokeWidth=2;" edge="1" parent="1" source="laKfoMu4vDz7gOgftW2H-1" target="laKfoMu4vDz7gOgftW2H-8">
          <mxGeometry width="100" relative="1" as="geometry">
            <mxPoint x="130" y="290" as="sourcePoint" />
            <mxPoint x="310" y="170" as="targetPoint" />
            <Array as="points" />
          </mxGeometry>
        </mxCell>
        <mxCell id="laKfoMu4vDz7gOgftW2H-14" value="" style="edgeStyle=none;orthogonalLoop=1;jettySize=auto;html=1;rounded=0;exitX=1;exitY=0.5;exitDx=0;exitDy=0;entryX=0;entryY=0.5;entryDx=0;entryDy=0;endArrow=none;endFill=0;strokeWidth=2;" edge="1" parent="1" source="laKfoMu4vDz7gOgftW2H-1" target="laKfoMu4vDz7gOgftW2H-9">
          <mxGeometry width="100" relative="1" as="geometry">
            <mxPoint x="140" y="300" as="sourcePoint" />
            <mxPoint x="320" y="180" as="targetPoint" />
            <Array as="points" />
          </mxGeometry>
        </mxCell>
        <mxCell id="laKfoMu4vDz7gOgftW2H-15" value="" style="edgeStyle=none;orthogonalLoop=1;jettySize=auto;html=1;rounded=0;exitX=1;exitY=0.5;exitDx=0;exitDy=0;endArrow=none;endFill=0;strokeWidth=2;entryX=0;entryY=0.5;entryDx=0;entryDy=0;" edge="1" parent="1" source="laKfoMu4vDz7gOgftW2H-1" target="laKfoMu4vDz7gOgftW2H-10">
          <mxGeometry width="100" relative="1" as="geometry">
            <mxPoint x="150" y="310" as="sourcePoint" />
            <mxPoint x="270" y="420" as="targetPoint" />
            <Array as="points" />
          </mxGeometry>
        </mxCell>
        <mxCell id="laKfoMu4vDz7gOgftW2H-18" value="&lt;font style=&quot;font-size: 15px;&quot;&gt;Remove_Bullet&lt;br&gt;&lt;/font&gt;" style="ellipse;whiteSpace=wrap;html=1;fillColor=#007FFF;strokeWidth=2;" vertex="1" parent="1">
          <mxGeometry x="760" y="240" width="150" height="80" as="geometry" />
        </mxCell>
        <mxCell id="laKfoMu4vDz7gOgftW2H-22" value="" style="endArrow=classicThin;dashed=1;html=1;rounded=0;strokeWidth=2;exitX=0.5;exitY=0;exitDx=0;exitDy=0;entryX=0.267;entryY=0.988;entryDx=0;entryDy=0;endFill=1;strokeColor=#FFFFFF;entryPerimeter=0;" edge="1" parent="1" source="laKfoMu4vDz7gOgftW2H-9" target="laKfoMu4vDz7gOgftW2H-7">
          <mxGeometry width="50" height="50" relative="1" as="geometry">
            <mxPoint x="540" y="330" as="sourcePoint" />
            <mxPoint x="590" y="280" as="targetPoint" />
            <Array as="points">
              <mxPoint x="290" y="300" />
            </Array>
          </mxGeometry>
        </mxCell>
        <mxCell id="laKfoMu4vDz7gOgftW2H-23" value="" style="endArrow=classicThin;dashed=1;html=1;rounded=0;strokeWidth=2;exitX=0.5;exitY=0;exitDx=0;exitDy=0;entryX=0.5;entryY=1;entryDx=0;entryDy=0;endFill=1;strokeColor=#FFFFFF;" edge="1" parent="1" source="laKfoMu4vDz7gOgftW2H-8" target="laKfoMu4vDz7gOgftW2H-7">
          <mxGeometry width="50" height="50" relative="1" as="geometry">
            <mxPoint x="540" y="330" as="sourcePoint" />
            <mxPoint x="590" y="280" as="targetPoint" />
          </mxGeometry>
        </mxCell>
        <mxCell id="laKfoMu4vDz7gOgftW2H-26" value="" style="endArrow=none;dashed=1;html=1;rounded=0;strokeWidth=2;endFill=0;entryX=0;entryY=0.5;entryDx=0;entryDy=0;strokeColor=#FFFFFF;startArrow=classicThin;startFill=1;exitX=1;exitY=0.5;exitDx=0;exitDy=0;" edge="1" parent="1" source="laKfoMu4vDz7gOgftW2H-8" target="laKfoMu4vDz7gOgftW2H-18">
          <mxGeometry width="50" height="50" relative="1" as="geometry">
            <mxPoint x="460" y="290" as="sourcePoint" />
            <mxPoint x="745" y="170" as="targetPoint" />
          </mxGeometry>
        </mxCell>
        <mxCell id="laKfoMu4vDz7gOgftW2H-27" value="&lt;font color=&quot;#ffffff&quot; style=&quot;font-size: 14px;&quot;&gt;&amp;lt;&amp;lt;Include&amp;gt;&amp;gt;&lt;/font&gt;" style="text;html=1;align=center;verticalAlign=middle;resizable=0;points=[];autosize=1;strokeColor=none;fillColor=none;" vertex="1" parent="1">
          <mxGeometry x="560" y="250" width="100" height="30" as="geometry" />
        </mxCell>
        <mxCell id="laKfoMu4vDz7gOgftW2H-29" value="&lt;font style=&quot;font-size: 15px;&quot;&gt;Remove_Player&lt;/font&gt;" style="ellipse;whiteSpace=wrap;html=1;fillColor=#007FFF;strokeWidth=2;" vertex="1" parent="1">
          <mxGeometry x="760" y="30" width="150" height="80" as="geometry" />
        </mxCell>
        <mxCell id="laKfoMu4vDz7gOgftW2H-30" value="" style="endArrow=none;dashed=1;html=1;rounded=0;strokeWidth=2;endFill=0;exitX=1;exitY=0.5;exitDx=0;exitDy=0;entryX=0;entryY=0.5;entryDx=0;entryDy=0;strokeColor=#FFFFFF;startArrow=classicThin;startFill=1;" edge="1" parent="1" source="laKfoMu4vDz7gOgftW2H-7" target="laKfoMu4vDz7gOgftW2H-29">
          <mxGeometry width="50" height="50" relative="1" as="geometry">
            <mxPoint x="480" y="290" as="sourcePoint" />
            <mxPoint x="745" y="180" as="targetPoint" />
          </mxGeometry>
        </mxCell>
        <mxCell id="laKfoMu4vDz7gOgftW2H-31" value="&lt;font color=&quot;#ffffff&quot; style=&quot;font-size: 14px;&quot;&gt;&amp;lt;&amp;lt;Include&amp;gt;&amp;gt;&lt;/font&gt;" style="text;html=1;align=center;verticalAlign=middle;resizable=0;points=[];autosize=1;strokeColor=none;fillColor=none;" vertex="1" parent="1">
          <mxGeometry x="530" y="90" width="100" height="30" as="geometry" />
        </mxCell>
        <mxCell id="laKfoMu4vDz7gOgftW2H-32" value="&lt;span style=&quot;font-size: 15px;&quot;&gt;Select_Ship&lt;/span&gt;" style="ellipse;whiteSpace=wrap;html=1;fillColor=#007FFF;strokeWidth=2;" vertex="1" parent="1">
          <mxGeometry x="760" y="480" width="150" height="80" as="geometry" />
        </mxCell>
        <mxCell id="laKfoMu4vDz7gOgftW2H-33" value="" style="endArrow=none;dashed=1;html=1;rounded=0;strokeWidth=2;endFill=0;entryX=0;entryY=0.5;entryDx=0;entryDy=0;strokeColor=#FFFFFF;startArrow=classicThin;startFill=1;exitX=1;exitY=0.5;exitDx=0;exitDy=0;" edge="1" parent="1" source="laKfoMu4vDz7gOgftW2H-10" target="laKfoMu4vDz7gOgftW2H-32">
          <mxGeometry width="50" height="50" relative="1" as="geometry">
            <mxPoint x="480" y="290" as="sourcePoint" />
            <mxPoint x="770" y="290" as="targetPoint" />
          </mxGeometry>
        </mxCell>
        <mxCell id="laKfoMu4vDz7gOgftW2H-34" value="&lt;font color=&quot;#ffffff&quot; style=&quot;font-size: 14px;&quot;&gt;&amp;lt;&amp;lt;Extend&amp;gt;&amp;gt;&lt;/font&gt;" style="text;html=1;align=center;verticalAlign=middle;resizable=0;points=[];autosize=1;strokeColor=none;fillColor=none;" vertex="1" parent="1">
          <mxGeometry x="560" y="490" width="100" height="30" as="geometry" />
        </mxCell>
        <mxCell id="laKfoMu4vDz7gOgftW2H-35" value="&lt;font style=&quot;font-size: 15px;&quot;&gt;Pickup_Item&lt;/font&gt;" style="ellipse;whiteSpace=wrap;html=1;fillColor=#007FFF;strokeWidth=2;" vertex="1" parent="1">
          <mxGeometry x="414" width="150" height="80" as="geometry" />
        </mxCell>
        <mxCell id="laKfoMu4vDz7gOgftW2H-36" value="" style="endArrow=none;dashed=1;html=1;rounded=0;strokeWidth=2;endFill=0;exitX=0.5;exitY=0;exitDx=0;exitDy=0;entryX=0;entryY=1;entryDx=0;entryDy=0;strokeColor=#FFFFFF;startArrow=classicThin;startFill=1;" edge="1" parent="1" source="laKfoMu4vDz7gOgftW2H-7" target="laKfoMu4vDz7gOgftW2H-35">
          <mxGeometry width="50" height="50" relative="1" as="geometry">
            <mxPoint x="480" y="170" as="sourcePoint" />
            <mxPoint x="770" y="80" as="targetPoint" />
          </mxGeometry>
        </mxCell>
        <mxCell id="laKfoMu4vDz7gOgftW2H-37" value="&lt;font color=&quot;#ffffff&quot; style=&quot;font-size: 14px;&quot;&gt;&amp;lt;&amp;lt;Extend&amp;gt;&amp;gt;&lt;/font&gt;" style="text;html=1;align=center;verticalAlign=middle;resizable=0;points=[];autosize=1;strokeColor=none;fillColor=none;" vertex="1" parent="1">
          <mxGeometry x="330" y="60" width="100" height="30" as="geometry" />
        </mxCell>
        <mxCell id="laKfoMu4vDz7gOgftW2H-38" value="" style="endArrow=none;dashed=1;html=1;rounded=0;strokeWidth=2;endFill=0;strokeColor=#FFFFFF;startArrow=classicThin;startFill=1;exitX=1;exitY=0.5;exitDx=0;exitDy=0;" edge="1" parent="1" source="laKfoMu4vDz7gOgftW2H-9">
          <mxGeometry width="50" height="50" relative="1" as="geometry">
            <mxPoint x="480" y="290" as="sourcePoint" />
            <mxPoint x="760" y="280" as="targetPoint" />
          </mxGeometry>
        </mxCell>
        <mxCell id="laKfoMu4vDz7gOgftW2H-39" value="&lt;font color=&quot;#ffffff&quot; style=&quot;font-size: 14px;&quot;&gt;&amp;lt;&amp;lt;Include&amp;gt;&amp;gt;&lt;/font&gt;" style="text;html=1;align=center;verticalAlign=middle;resizable=0;points=[];autosize=1;strokeColor=none;fillColor=none;" vertex="1" parent="1">
          <mxGeometry x="530" y="320" width="100" height="30" as="geometry" />
        </mxCell>
      </root>
    </mxGraphModel>
  </diagram>
</mxfile>
